<mxfile host="app.diagrams.net" modified="2021-05-26T22:22:25.015Z" agent="5.0 (Windows NT 6.1; WOW64) AppleWebKit/537.36 (KHTML, like Gecko) Chrome/90.0.4430.212 Safari/537.36" etag="D04m4MSiOIGLjoHXBaEr" version="14.7.2" type="github">
  <diagram id="M6-23vqG26dhi9XxUcFZ" name="Page-1">
    <mxGraphModel dx="868" dy="450" grid="1" gridSize="10" guides="1" tooltips="1" connect="1" arrows="1" fold="1" page="1" pageScale="1" pageWidth="827" pageHeight="1169" math="0" shadow="0">
      <root>
        <mxCell id="0" />
        <mxCell id="1" parent="0" />
        <mxCell id="qR9Sk1kjnpyBWstWYU7h-3" value="" style="edgeStyle=orthogonalEdgeStyle;rounded=0;orthogonalLoop=1;jettySize=auto;html=1;" edge="1" parent="1" source="qR9Sk1kjnpyBWstWYU7h-1" target="qR9Sk1kjnpyBWstWYU7h-2">
          <mxGeometry relative="1" as="geometry">
            <Array as="points">
              <mxPoint x="110" y="160" />
              <mxPoint x="110" y="160" />
            </Array>
          </mxGeometry>
        </mxCell>
        <mxCell id="qR9Sk1kjnpyBWstWYU7h-1" value="start" style="ellipse;whiteSpace=wrap;html=1;" vertex="1" parent="1">
          <mxGeometry x="50" y="30" width="120" height="80" as="geometry" />
        </mxCell>
        <mxCell id="qR9Sk1kjnpyBWstWYU7h-7" value="" style="edgeStyle=orthogonalEdgeStyle;rounded=0;orthogonalLoop=1;jettySize=auto;html=1;" edge="1" parent="1" source="qR9Sk1kjnpyBWstWYU7h-2" target="qR9Sk1kjnpyBWstWYU7h-5">
          <mxGeometry relative="1" as="geometry">
            <Array as="points">
              <mxPoint x="95" y="270" />
              <mxPoint x="95" y="270" />
            </Array>
          </mxGeometry>
        </mxCell>
        <mxCell id="qR9Sk1kjnpyBWstWYU7h-2" value="A=[13,22,47,88,96,101]&lt;br&gt;i=0&lt;br&gt;sub&lt;br&gt;sumeven=0&lt;br&gt;sumodd=0" style="shape=parallelogram;perimeter=parallelogramPerimeter;whiteSpace=wrap;html=1;fixedSize=1;" vertex="1" parent="1">
          <mxGeometry x="20" y="180" width="170" height="70" as="geometry" />
        </mxCell>
        <mxCell id="qR9Sk1kjnpyBWstWYU7h-10" value="" style="edgeStyle=orthogonalEdgeStyle;rounded=0;orthogonalLoop=1;jettySize=auto;html=1;" edge="1" parent="1" source="qR9Sk1kjnpyBWstWYU7h-5" target="qR9Sk1kjnpyBWstWYU7h-9">
          <mxGeometry relative="1" as="geometry" />
        </mxCell>
        <mxCell id="qR9Sk1kjnpyBWstWYU7h-31" value="" style="edgeStyle=orthogonalEdgeStyle;rounded=0;orthogonalLoop=1;jettySize=auto;html=1;" edge="1" parent="1" source="qR9Sk1kjnpyBWstWYU7h-5" target="qR9Sk1kjnpyBWstWYU7h-30">
          <mxGeometry relative="1" as="geometry" />
        </mxCell>
        <mxCell id="qR9Sk1kjnpyBWstWYU7h-5" value="i&amp;lt;A.length" style="rhombus;whiteSpace=wrap;html=1;" vertex="1" parent="1">
          <mxGeometry x="55" y="320" width="80" height="80" as="geometry" />
        </mxCell>
        <mxCell id="qR9Sk1kjnpyBWstWYU7h-21" style="edgeStyle=orthogonalEdgeStyle;rounded=0;orthogonalLoop=1;jettySize=auto;html=1;exitX=0.5;exitY=1;exitDx=0;exitDy=0;" edge="1" parent="1" source="qR9Sk1kjnpyBWstWYU7h-9" target="qR9Sk1kjnpyBWstWYU7h-11">
          <mxGeometry relative="1" as="geometry">
            <Array as="points">
              <mxPoint x="230" y="450" />
              <mxPoint x="230" y="450" />
            </Array>
          </mxGeometry>
        </mxCell>
        <mxCell id="qR9Sk1kjnpyBWstWYU7h-24" style="edgeStyle=orthogonalEdgeStyle;rounded=0;orthogonalLoop=1;jettySize=auto;html=1;exitX=1;exitY=0.5;exitDx=0;exitDy=0;entryX=0;entryY=0.5;entryDx=0;entryDy=0;" edge="1" parent="1" source="qR9Sk1kjnpyBWstWYU7h-9" target="qR9Sk1kjnpyBWstWYU7h-15">
          <mxGeometry relative="1" as="geometry" />
        </mxCell>
        <mxCell id="qR9Sk1kjnpyBWstWYU7h-9" value="A[i]%2=0" style="rhombus;whiteSpace=wrap;html=1;" vertex="1" parent="1">
          <mxGeometry x="190" y="320" width="80" height="80" as="geometry" />
        </mxCell>
        <mxCell id="qR9Sk1kjnpyBWstWYU7h-26" style="edgeStyle=orthogonalEdgeStyle;rounded=0;orthogonalLoop=1;jettySize=auto;html=1;entryX=0.325;entryY=1.017;entryDx=0;entryDy=0;entryPerimeter=0;" edge="1" parent="1" source="qR9Sk1kjnpyBWstWYU7h-11" target="qR9Sk1kjnpyBWstWYU7h-20">
          <mxGeometry relative="1" as="geometry" />
        </mxCell>
        <mxCell id="qR9Sk1kjnpyBWstWYU7h-11" value="sumodd = sumodd + A[i]" style="rounded=0;whiteSpace=wrap;html=1;" vertex="1" parent="1">
          <mxGeometry x="360" y="470" width="120" height="60" as="geometry" />
        </mxCell>
        <mxCell id="qR9Sk1kjnpyBWstWYU7h-12" value="true" style="text;html=1;align=center;verticalAlign=middle;resizable=0;points=[];autosize=1;strokeColor=none;" vertex="1" parent="1">
          <mxGeometry x="120" y="330" width="40" height="20" as="geometry" />
        </mxCell>
        <mxCell id="qR9Sk1kjnpyBWstWYU7h-28" style="edgeStyle=orthogonalEdgeStyle;rounded=0;orthogonalLoop=1;jettySize=auto;html=1;" edge="1" parent="1" source="qR9Sk1kjnpyBWstWYU7h-15" target="qR9Sk1kjnpyBWstWYU7h-20">
          <mxGeometry relative="1" as="geometry" />
        </mxCell>
        <mxCell id="qR9Sk1kjnpyBWstWYU7h-15" value="&lt;span&gt;sumeven = sumeven + A[i]&lt;/span&gt;" style="rounded=0;whiteSpace=wrap;html=1;" vertex="1" parent="1">
          <mxGeometry x="354" y="330" width="120" height="60" as="geometry" />
        </mxCell>
        <mxCell id="qR9Sk1kjnpyBWstWYU7h-27" style="edgeStyle=orthogonalEdgeStyle;rounded=0;orthogonalLoop=1;jettySize=auto;html=1;exitX=0.5;exitY=0;exitDx=0;exitDy=0;entryX=0.5;entryY=0;entryDx=0;entryDy=0;" edge="1" parent="1" source="qR9Sk1kjnpyBWstWYU7h-20" target="qR9Sk1kjnpyBWstWYU7h-5">
          <mxGeometry relative="1" as="geometry" />
        </mxCell>
        <mxCell id="qR9Sk1kjnpyBWstWYU7h-20" value="i++" style="rounded=0;whiteSpace=wrap;html=1;" vertex="1" parent="1">
          <mxGeometry x="560" y="330" width="120" height="60" as="geometry" />
        </mxCell>
        <mxCell id="qR9Sk1kjnpyBWstWYU7h-22" value="true" style="text;html=1;align=center;verticalAlign=middle;resizable=0;points=[];autosize=1;strokeColor=none;" vertex="1" parent="1">
          <mxGeometry x="190" y="410" width="40" height="20" as="geometry" />
        </mxCell>
        <mxCell id="qR9Sk1kjnpyBWstWYU7h-25" value="false" style="text;html=1;align=center;verticalAlign=middle;resizable=0;points=[];autosize=1;strokeColor=none;" vertex="1" parent="1">
          <mxGeometry x="290" y="330" width="40" height="20" as="geometry" />
        </mxCell>
        <mxCell id="qR9Sk1kjnpyBWstWYU7h-34" style="edgeStyle=orthogonalEdgeStyle;rounded=0;orthogonalLoop=1;jettySize=auto;html=1;entryX=0.5;entryY=0;entryDx=0;entryDy=0;" edge="1" parent="1" source="qR9Sk1kjnpyBWstWYU7h-30" target="qR9Sk1kjnpyBWstWYU7h-33">
          <mxGeometry relative="1" as="geometry" />
        </mxCell>
        <mxCell id="qR9Sk1kjnpyBWstWYU7h-30" value="sub=sumeven-sumodd" style="rounded=0;whiteSpace=wrap;html=1;" vertex="1" parent="1">
          <mxGeometry x="35" y="460" width="120" height="60" as="geometry" />
        </mxCell>
        <mxCell id="qR9Sk1kjnpyBWstWYU7h-32" value="false" style="text;html=1;align=center;verticalAlign=middle;resizable=0;points=[];autosize=1;strokeColor=none;" vertex="1" parent="1">
          <mxGeometry x="60" y="420" width="40" height="20" as="geometry" />
        </mxCell>
        <mxCell id="qR9Sk1kjnpyBWstWYU7h-36" style="edgeStyle=orthogonalEdgeStyle;rounded=0;orthogonalLoop=1;jettySize=auto;html=1;" edge="1" parent="1" source="qR9Sk1kjnpyBWstWYU7h-33" target="qR9Sk1kjnpyBWstWYU7h-35">
          <mxGeometry relative="1" as="geometry" />
        </mxCell>
        <mxCell id="qR9Sk1kjnpyBWstWYU7h-33" value="print sub" style="shape=parallelogram;perimeter=parallelogramPerimeter;whiteSpace=wrap;html=1;fixedSize=1;" vertex="1" parent="1">
          <mxGeometry x="35" y="585" width="120" height="60" as="geometry" />
        </mxCell>
        <mxCell id="qR9Sk1kjnpyBWstWYU7h-35" value="end" style="ellipse;whiteSpace=wrap;html=1;" vertex="1" parent="1">
          <mxGeometry x="35" y="700" width="120" height="80" as="geometry" />
        </mxCell>
      </root>
    </mxGraphModel>
  </diagram>
</mxfile>
